<mxfile host="65bd71144e">
    <diagram id="LvuXZrQ7Tg6OYWz3CXxq" name="Page-1">
        <mxGraphModel dx="856" dy="496" grid="1" gridSize="10" guides="1" tooltips="1" connect="1" arrows="1" fold="1" page="1" pageScale="1" pageWidth="1654" pageHeight="2336" math="0" shadow="0">
            <root>
                <mxCell id="0"/>
                <mxCell id="1" parent="0"/>
                <mxCell id="2" value="Начало" style="html=1;dashed=0;whitespace=wrap;shape=mxgraph.dfd.start;fontSize=14;" parent="1" vertex="1">
                    <mxGeometry x="380" y="80" width="200" height="60" as="geometry"/>
                </mxCell>
                <mxCell id="7" style="edgeStyle=none;html=1;entryX=1;entryY=0.5;entryDx=0;entryDy=0;entryPerimeter=0;fontSize=14;endArrow=none;endFill=0;dashed=1;" parent="1" source="6" target="2" edge="1">
                    <mxGeometry relative="1" as="geometry"/>
                </mxCell>
                <mxCell id="6" value="&amp;nbsp; &amp;nbsp; Функция выгрузки загружаемого модуля ядра&lt;br&gt;&amp;nbsp; &amp;nbsp; PROTECTED_FILE - путь к защищаемому файлу&lt;br&gt;&amp;nbsp; &amp;nbsp; new_file_operations - функция создания нового объекта&amp;nbsp;&lt;br&gt;типа struct file_operations&lt;br&gt;&amp;nbsp; &amp;nbsp; new_inode_operations - функция создания нового объекта&lt;br&gt;типа struct inode_operations" style="strokeWidth=1;html=1;shape=mxgraph.flowchart.annotation_1;align=left;pointerEvents=1;fontSize=14;" parent="1" vertex="1">
                    <mxGeometry x="640" y="55" width="20" height="110" as="geometry"/>
                </mxCell>
                <mxCell id="27" style="edgeStyle=none;html=1;exitX=0.5;exitY=1;exitDx=0;exitDy=0;entryX=0.5;entryY=0;entryDx=0;entryDy=0;fontSize=14;endArrow=classic;endFill=1;" parent="1" source="12" target="15" edge="1">
                    <mxGeometry relative="1" as="geometry">
                        <mxPoint x="480" y="540" as="sourcePoint"/>
                    </mxGeometry>
                </mxCell>
                <mxCell id="12" value="Сбросить 16 бит регистра CR0" style="whiteSpace=wrap;html=1;fontSize=14;strokeWidth=1;" parent="1" vertex="1">
                    <mxGeometry x="380" y="180" width="200" height="60" as="geometry"/>
                </mxCell>
                <mxCell id="24" style="edgeStyle=none;html=1;exitX=0.5;exitY=0.5;exitDx=0;exitDy=30;entryX=0.5;entryY=0;entryDx=0;entryDy=0;fontSize=14;endArrow=classic;endFill=1;exitPerimeter=0;" parent="1" source="2" target="12" edge="1">
                    <mxGeometry relative="1" as="geometry">
                        <mxPoint x="480" y="240" as="sourcePoint"/>
                    </mxGeometry>
                </mxCell>
                <mxCell id="28" style="edgeStyle=none;html=1;exitX=0.5;exitY=1;exitDx=0;exitDy=0;entryX=0.5;entryY=0;entryDx=0;entryDy=0;fontSize=14;endArrow=classic;endFill=1;" parent="1" source="15" target="16" edge="1">
                    <mxGeometry relative="1" as="geometry"/>
                </mxCell>
                <mxCell id="15" value="Установить поле d_flags dentry защищаемого файла в исходное значение" style="whiteSpace=wrap;html=1;fontSize=14;strokeWidth=1;" parent="1" vertex="1">
                    <mxGeometry x="380" y="280" width="200" height="60" as="geometry"/>
                </mxCell>
                <mxCell id="42" style="edgeStyle=none;html=1;exitX=0.5;exitY=1;exitDx=0;exitDy=0;entryX=0.5;entryY=0;entryDx=0;entryDy=0;" edge="1" parent="1" source="16" target="37">
                    <mxGeometry relative="1" as="geometry"/>
                </mxCell>
                <mxCell id="16" value="Установить поля i_op и i_fop для inode защищаемого файла в исходное значение" style="whiteSpace=wrap;html=1;fontSize=14;strokeWidth=1;" parent="1" vertex="1">
                    <mxGeometry x="380" y="380" width="200" height="60" as="geometry"/>
                </mxCell>
                <mxCell id="44" style="edgeStyle=none;html=1;exitX=0.5;exitY=1;exitDx=0;exitDy=0;entryX=0.5;entryY=0.5;entryDx=0;entryDy=-30;entryPerimeter=0;" edge="1" parent="1" source="21" target="22">
                    <mxGeometry relative="1" as="geometry"/>
                </mxCell>
                <mxCell id="21" value="Установить 16 бит регистра CR0 в исходное значение" style="whiteSpace=wrap;html=1;fontSize=14;strokeWidth=1;" parent="1" vertex="1">
                    <mxGeometry x="380" y="680" width="200" height="60" as="geometry"/>
                </mxCell>
                <mxCell id="22" value="Конец" style="html=1;dashed=0;whitespace=wrap;shape=mxgraph.dfd.start;fontSize=14;" parent="1" vertex="1">
                    <mxGeometry x="380" y="780" width="200" height="60" as="geometry"/>
                </mxCell>
                <mxCell id="40" style="edgeStyle=none;rounded=0;html=1;exitX=0.5;exitY=1;exitDx=0;exitDy=0;entryX=0.5;entryY=0;entryDx=0;entryDy=0;fontSize=14;endArrow=classic;endFill=1;" parent="1" source="37" target="38" edge="1">
                    <mxGeometry relative="1" as="geometry"/>
                </mxCell>
                <mxCell id="37" value="Освободить new_fop" style="whiteSpace=wrap;html=1;fontSize=14;strokeWidth=1;" parent="1" vertex="1">
                    <mxGeometry x="380" y="480" width="200" height="60" as="geometry"/>
                </mxCell>
                <mxCell id="43" style="edgeStyle=none;html=1;exitX=0.5;exitY=1;exitDx=0;exitDy=0;entryX=0.5;entryY=0;entryDx=0;entryDy=0;" edge="1" parent="1" source="38" target="21">
                    <mxGeometry relative="1" as="geometry"/>
                </mxCell>
                <mxCell id="38" value="Освободить new_iop" style="whiteSpace=wrap;html=1;fontSize=14;strokeWidth=1;" parent="1" vertex="1">
                    <mxGeometry x="380" y="580" width="200" height="60" as="geometry"/>
                </mxCell>
            </root>
        </mxGraphModel>
    </diagram>
</mxfile>